<?xml version="1.0" encoding="UTF-8"?>
<svg id="Layer_2" data-name="Layer 2" xmlns="http://www.w3.org/2000/svg" viewBox="0 0 209.39 155.05">
  <defs>
    <style>
      .cls-1 {
        fill: #231f20;
      }
    </style>
  </defs>
  <g id="Layer_1-2" data-name="Layer 1">
    <g>
      <path class="cls-1" d="M125.41,104.59c0,4.89-3.12,7.43-6.5,7.43-2.7,0-4.99-1.99-6.47-3.92-1.13,1.48-2.54,2.61-4.5,2.77-.58,3.02-3.22,5.05-6.79,5.05-4.21,0-7.24-2.96-8.72-5.37l2.25-2.03c1.45,2.16,3.54,4.12,6.18,4.12,2.32,0,3.89-1.51,3.89-3.54,0-1.67-1.13-3.02-2.7-3.54-1.06.51-2.44.87-3.86,1.06l-.96-2.86c4.28-.84,6.08-2.38,6.08-4.18,0-1.38-1.06-2.28-2.44-2.28-1.61,0-3.31,1.13-4.57,2.51l-1.67-2.51c1.29-1.45,3.51-3.02,6.27-3.02,3.44,0,5.56,2.41,5.56,5.15,0,1.45-.58,2.93-1.83,4.05.9.23,2.48,2.06,3.12,4.25,4.12-1.19,4.92-10.84,11.29-10.84,3.6,0,6.37,3.15,6.37,7.72ZM104.66,90.15l2.61-.71c.51,2.38,1.87,3.8,3.92,3.8s3.31-1.38,3.89-3.86l2.7.71c-.68,3.47-2.9,5.92-6.47,5.92s-5.82-2.22-6.66-5.85ZM109.23,89.22c0-1.16.71-1.9,1.96-1.9s1.99.77,1.99,1.93-.74,1.9-1.96,1.9-1.99-.77-1.99-1.93ZM122.13,104.37c0-2.54-1.22-4.21-2.9-4.21-2.28,0-3.54,2.67-5.08,5.34,1.16,1.87,2.64,3.25,4.5,3.25,1.99,0,3.47-1.77,3.47-4.38Z"/>
      <g>
        <path d="M167.52,118.53c-1.21,1.16-1.95,3.66-4,3.78-.53.02-.62-1.67-.17-2.08l3.32-2.99c.52-.47,1.76-.2,1.99-1.59l10.42.09c.23.92,1.23,1.91,2.31,1.26,1.31-.79-.15-2.46-.35-3.37-.55-2.54-.21-5.43-.12-7.92.54-.97,1.89-2.95,2.89-3.17,1.29-.19,1.94-1.02,2.88-1.42,1.79-.74,5.07-.22,6.99-.19.57.49,1.14,1.96,2.61,1.26.53-.25.37-1.57.21-2.37-.13-.65-1.54-1.13-2.08-1.62-.03-1.4-.66-2.41-1.45-3.32-.51-.58.11-2.55-1.8-2.49l.11-4.57c1.31-.4,1.74-1.39,1.43-2.73.75-.55,1.44-1.42,2.47-1.45.52-.01.6,1.22.49,1.64-.1.37-.72.74-1.35,1.02-.18,1.73-.3,4.02,0,5.94.65.52,1.45,1.07,1.46,2.46,0,.81,1.42,1.96.69,3.28l2.15,1.29,6.09,6.39c.56.58-.59,1.18-1.2,1.01-.77-.21-.92-.48-1.64-1.19-1.17-1.13-4.67.9-5.84-1.68l-10.88-.18c-1.67,2.56-3.66,2.81-3.33,4.53.07.38.68.74,1.19,1,.5,1.47.16,2.96.1,4.6,3.07,1-.44,3.77,4.34,6.57.47,1.36-1.06,1.09-1.6,1.15-.78.1-1.13-1.22-1.74-1.33-1.17-.22-2.37-.42-3.02-1.52l-13.57-.11Z"/>
        <path d="M36.4,43.56c.4-1.56-2.16-3.5-2.52-5-.26-1.09-.97-2.01-1.46-2.91-.68-1.23-.24-3.11-2.71-3.22.12-1.02.04-1.72-.11-2.6-1.08-.17-1.31-.8-1.39-1.37-.17-1.22.12-1.82,1.28-1.8,2.38.04,2.05,2.41,3.05,2.85.51.23,1.66,0,2.12.28.42.27.45.75.45.95,0,.37.89.59,1.12.17.2-.38.25-.76.29-.96.07-.39.8-.53,1.1-.3.6.46-.07,2.04.26,2.57.21.33,3.68.93,4.68,1.5.89.51,1.22,1.75,3.04,1.19,1.29-.4,2.78-.11,3.16,1.46l4.9-.07c.34-.46.57-1.15.91-1.35.36-.2,1.47.09,1.97-.01,4.64-.99,1.42-6.39,4.09-7.11l.26-10.21c.91.21,1.56.8,2.35,1.48l-.16,10.24c-2.85,1.07.4,4.79-3.35,4.08-.74.75-.22,2.08-.45,2.71-.46.38-1.54.16-2.02.15s-.86.92-1.28,1.47l-10.97.05c-1.15-3.13-4.34.06-5-2.8-1.04-.26-1.97-.13-3.15-.11-.7-1.01-1.47-2.2-2.93-2.39-.47-.06-.53,1.21-.42,1.64s.95.82,1.46,1.21c-.25,1.31.41,1.92,1.07,2.91l1.63,2.43c.51.92.19,2.65.03,3.57-.05.29-.9.39-1.06.23s-.33-.59-.24-.93Z"/>
        <path d="M86.16,23.62c.05.62-2.35,1.3-4.68,1.83-.93,1.09-1.39,1.45-3,1.43s-2.53-.08-3.41-1.49c-4.72-1.08-5.59-.82-6.26-4.4-.29-1.58-2.61-2.38-3.5-3.44-1.15-1.37-2.14-1.78-4.34-1l-.39-5.53-1.29-1.25c-.39-.38.02-2.14,1.15-1.56.64.58,1.01,2.46,2.68,2.37l.12,2.27,6.29,6.11c.84.81.86,1.17,2.42,1.23.96.14,1.95,1.96,2.71,2.77,1.51-.35,2.38.13,2.83,1.44,1.45-.09,2.96.29,4.26-.24l2.54-2.54c.39-.39,1.61-.25,1.79.13.26.55.04,1.27.08,1.87Z"/>
        <path d="M202.08,74.05l-2.24.05c-.33-1.33-1.39-1.85-2.78-1.36l-1.7-2.91c-1.2.01-3.36-.25-3.87-1.65-.38-1.03-.07-2.25-1.69-2.63l.12-4.4c.42-.32,1.15-.54,1.3-.89.22-.49.16-1.3.11-2.04-.03-.44.92-.63,1.19-.37.34.32.45,3.3.17,3.93-.16.36-1.04.37-1.35.75.24.62.81.57,1.09.65.55.14.24,1.6.31,2.04,1.74,1.44,3.77,4.55,5.93,5.64,1.52.76,3.27.95,3.67,3.04.02.13.14.18.24.15l1.38-.03c.41,0,.79.73,1.04,1.24,2.83.46,5.35.03,4.01,1.46-.74.79-4.37-.99-5.41,2.5l-2.5.23c-.26,1.28-.98,1.47-2.14,1.39-.8-.06-.9-.2-.99-.77-.02-.14,2.82-3.46,4.87-3.12.59.08,1.16-.26.89-1.07l-1.02-.5c-.3-.15-.43-.73-.38-1.06l-.25-.26Z"/>
        <path d="M159.07,133.29c-3.75,1.13-4.09-6.1-12.31-5.23-4.48.48-3.49,6.29-3.97,6.67-.32.25-1.18.07-1.19-.35l-.09-3.5c1.99-.48,1.09-3.08,4.46-5.51,1.61-.55,3.38-.04,5.04-.15.48,2.56,1.89,2.54,3.66,3.23,1.88.73,3.59,3.2,4.65,4.45.06.07,0,.28.24.43.45-.08,1.34-.27,1.84.01s.26,1.62.25,2.28v1.23c0,.29-.78.38-1.14.23-.44-.19-.22-.99-.28-1.28l-.98-2.23-.19-.3Z"/>
        <path d="M141.46,136.85c.2,2.52.34,4.78-.09,7.41-1.9-.99-2.68-2.33-4-3.33-.18-2.93-1.52-5.13-3.85-6.65-.29-.7-.34-2.02.54-2.7,3.32,2.63,3.15,6.04,5.81,7.26.23-.69-.07-1.62,1.59-1.98Z"/>
        <path d="M164.52,86.24c-.44.41.24,2.02-1.1,2.46-.63.21-1.22.95-2.39-.05l-3.57-.37c-.67-1.1-1.59-1.29-2.77-1.56-.56-.13-.83-1.83-2.24-1.16-.72.34-1.78-.22-1.83-1.34-1.11-.3-2.14-.09-3.3-.08-3.06-3.72.03-6.88-.42-11.53.36-.31,1.08-.55,1.2-.91.13-.38.12-1.41.06-1.99,1.33-.41,1.17-1.66,1.56-2.78.33-.93,1.67-1.23,1-3.07-.18-.51.48-1.53,1.27-1.47l.21-3.43c2.03-.38.55-2.07,1.83-4.96.75-1.69,3.13-.48,2.99-2.06-.03-.3.72-.43.91-.27s.32.86.45,1.16c.85.37,1.89.24,2.91.19.37,1.37,1.28,1.83,2.63,1.36.38,1.6,1.65,2.17,3.2,1.14.57,1.92,1.55,1.63,2.79,2.08.82.3,1.53,2.35,3.05,2.18l-.04,5.48c-2.55.49.07,3.68-2.43,4.26-.25,1.21-.09,2.27-.05,3.65-1.03.33-1.56,1.08-1.39,2.28-.42.44-.77.69-1.39,1.01.63,2.89-.78,5-1.95,7.21-.33.62-.34,1.74-1.21,2.55ZM161.74,77.04c-.53-1.77.42-2.03,1.06-3.09.41-.7.2-2.1,1.56-2.19l-.19-3.54c1.54-.07,1.25-1.71,1.71-2.31.67-.87,1.24-.98,1.11-2.13-.08-.72-.48-.95-.99-1.59-1.76-2.23-2.81.29-4.66-2.14-.53-.69-2.22-.39-3.07-.29l-.21,2.63c-2.42.59.16,3.27-2.43,4.54.13,1.35-.06,2.45-1.4,2.86.26,1.84.2,3.28-.97,4.77.32.82.41,2.43-.28,2.75-.64.31-.75.29-.86.79-.17.75.57.63.75.87,1.98,2.64,3.65.2,5.87,2.15.43.38,1.49.23,1.57-.18.54-2.89,1.84-2.54,1.42-3.92Z"/>
        <path d="M177.48,33.03c.48-1.36,1.11-2.02,1.87-2.36.35-1.17-.88-1.33-1.65-1.13-1.4.37-1.26,1.75-3.24,1.78-.88,1.92-2.74,1.94-4.33,2.43-1.07,2.42-3.69-.22-4.43,2.45l-9.92.24-3.55-3.83c-1.5-2.57-1.18-4.53-.38-6.9.72-2.16.2-4.72.16-7.3l-6.05,6.01c-2.67,2.65-4.5,2.4-4.78,3.93-1.18-.14-2.64-.47-3.55.09-.43.7-.71,1.32-1.51,1.32-.73,0-1.21-.57-1.51-1.38-1.35-.01-2.69-.61-3.63-2.08l-1.54-2.45-.43-6.99c-.03-.42-.47-.78-.62-.99-.31-.43,1.87-2.37.38-5.74-.66,1.88-2.52,2.5-3.16,3.89-.49,1.07-.16,2.16-1.56,2.94s-2.01,2.38-1.42,4.33c-2.08-.06-3.19,1.23-4.17,2.96-2.22.21-4.32,1.03-5.81,2.7l-6.87-.15-1.09-1.45c-1.2.06-3.49-.57-3.59-1.79-.12-1.49-.36-1.57-1.23-2.47l-1.66-4.46c-.3-.8-1.48-.96-1.08-2.29.57-1.92-1.96-3.9-2.16-3.87-.71.11-.62.76-.97,1.46-.25.49-1.62-.09-1.23-1.2.17-.47.4-1.13,1.36-1.42l.33-5.54c1.08.21,1.9,1.23,2.58,2.16l.27,3.96c1.5,1.22,2.59,5.04,2.06,7.37l3.03,1.61c-.5,2.38,1.68,4.16,3.75,4.2.58.91,1.71,1.29,2.49,1.7,3.69,1.92,6.46-2.2,7.63-2.76,1.66-.8,3.93-1.78,4.18-3.9,3.28-3.05,3.61-5.36,3.77-5.62l1.45-2.35c.49-.79,1.86-1.25.95-3.08,1.55-.21,1.93-1.37,1.59-2.64C130.1,2.25,128.42-.02,129.89,0c1.35.01-.27,2.41,1.97,3.1l.17,5.99-1.41,1-.07,7.1,1.56.97-.06,6.18,2.78.07.14,2.34,4.79.07c.55-1.87,2.5-1.7,3.56-2.69l5.84-5.49c1.7-1.59,3.02-2.58,3.2-4.9l3.64-3.64c.91,2.3.25,4.01.4,6.13l2.8.06c.09.53.1.87.01,1.38l-4.21.04.02,4.75-1.59,1,.29,7.07c1.54,1.16,1.65,4.12,3.93,4.42,1.16.16,2.65,0,2.98-1.57l2.99.16c1.13-1.25,2.92-.77,4.1-1.32.91-.42,1.43-1.63,2.96-1.32l2.83-2.83c1.56.46,2.95.28,3.36-1.49,1.64.84,2.26-.69,2.99-.99,1.78-.74,2.91-1.04,3.86-2.76.66-.23,1.44,1.34.97,1.76l-1.39,1.23c-.07,1.3-.17,2.39-1.56,2.79-.08,2.26-.84,4.38-2.58,5.62.76,1.52-.43,2.08-1.17,2.62l.04,9.07c1.77-.6,2.41.32,3.15,1,1.82,1.7,8.73,1.73,12.36,1.13,1.04-.17,2.04-1.33,3.52-.74s2.28-.47,2.84-1.26c1.3-.4,2.78-.37,4.16.11-1,1.89-2.82,2.29-4.56,2.08l-.05,2.46c-1.95.97-2.9,2.91-4.36,4.28-.47.44-1.27-.66-1.05-1.27.54-1.52,2.21-1.14,1.48-4.02l-15.76.04c-.38-1.51-2.23-1.87-3.02-2.81-.57-.67.22-2.83-1.87-2.84l.31-5.88c.79-.55,1.86-1.45,1.25-2.82-.56-1.28.82-1.8,1.02-2.36Z"/>
        <path d="M89.07,20.24c-.31.1-1.01-.13-1.21-.2s-.32-.25-.34-.66c-.03-.44.43-.74,1.09-.81.39-1.47,1.17-3.08,2.91-4,1.2,2.39-.05,4.86-2.46,5.68Z"/>
        <g>
          <path d="M72.02,82.43c-.43.83-3.13-.95-3.84,1.76-.9-.02-2.31-.24-2.99.04-.56,1.06-1.25,1.09-2.23,1.62-.79.42-1.19,1.74-2.7,1.09-1.07-.46-1.54.58-2,1.03-1.23,1.19-2.65.42-3.47-.4-1.16-1.17-1.2-2.48-.92-4.4-.37-.34-.86-.52-1.07-.67-.36-.25-.51-1.15-.33-1.65.5-1.46-.59-1.98-1.3-2.46.25-1.75-.15-3.24-.77-4.93-.36-.97.5-2.91-1.53-3.1l.1-4.38c-2.47-1.01-.14-2.73-2.29-5.11-.68-.75-.37-2.73-.06-3.6,1.54.52,2.35,0,2.78-1.37l3.89-.06c.48-1.32,1.65-1.22,2.65-1.57.58-.2.9-1.91,2.23-1.2,1.12.6,1.46-.82,2.03-1.05l3.15-1.28c2.03,1.26,1.82,4.93.01,6.62l-3.07-.04c-.44,1.67-1.31,1.5-2.67,1.63-1.18.11-2.31,1.42-3.73.71-.2.98-.11,1.46-.12,2.22-.01.49.88.85,1.22,1.23l.14,3.22c1.66.51,2.94.1,4.39-.76.57-.34,2.33.27,2.67-.31.45-.77.8-1.25,1.4-1.31,1.22-.12,1.14.84,1.22,1.96.33.42,1.12.83,1.21,1.3.84,3.91-2.99.39-3.89,3.62h-3.12c-1.91,2.14-1.9,5.83-.03,8.03.83.04,2.46.32,2.96-.15.71-.93,1.2-1.02,2.27-1.6.66-.36,1.3-1.78,2.69-1.08.31.16,1.12.03,1.34-.17.27-.24.35-.84.81-1.59l2.34,2.58c-.9,2.84,1.25,4.47.66,5.6Z"/>
          <path d="M78.82,80.91c-.8-1.05.42-5.52,1.55-6.92.45-.56.41-2.14,1.73-2.24l-.08-3.52c1.01-.28,1.68-1,1.34-2.32-.15-.58-.12-1.56.51-1.76.54-.17.83-.28.83-.82,0-.57-.3-.6-.85-.83-.62-.26-.76-1.44-.44-2.33-2.79-1.59-5.38-4.87-6.45-7.99-.35-1.02-2.52-2-3.02-2.94-.15-.28-1.43.15-1.69.01s-.36-1.13-.08-1.38l8.11-.13c2.34,3.74,5.8,4,5.45,8.26,1.3-.56,1.59-1.41,2.48-2.04-.47-1.39.26-2.28,1.15-2.85l.21-1.48,1.18-.85c.44-.32-.78-1.35-1.56-1.25.56-1.26,1.47-1.82,2.09-2.47l5.6-.11-.06,5.25c-.55.78-2.09,1.11-2.41,1.92-.42,1.06-.17,2.2-.03,3.42-1.72.1-1.26,1.77-1.6,2.45-1.17,2.3-1.04,3.91.43,5.81.87,1.13,2.81,2.1,3.36,3.16.58,2.55,3.9,6.74,5.64,7.43.55.22.76.39.77.9.02,1.76-3.57-.77-4.35,2.16l-4.56-.16c.75-2.07-.27-2.41-1.02-3.27l-4.35-5.01c-.71,1.19-1.29,1.83-2.12,2.5.94,2.02-.17,2.53-.81,3.63-.71,1.22-1.19,4.98-1.15,4.91.08-.13-4.96,1.98-5.8.86Z"/>
        </g>
        <path d="M131.87,129.45c.54,1.14-.74,1.27-1.51,1.07-.61-.16-1.23-.25-1.44-1.43l-5.02-.2v-.7s5.77-.08,5.77-.08c.53,0,1.91.76,2.2,1.35Z"/>
        <path d="M20.42,56.41l7.36-.18c.62-.73,1.37-1.85,2.92-1.29,1.11.4,6.04-.94,6.92-2.89l.36-6.03c.01-.24.9-.32,1.06-.18.78.7-.58,3.4,1.03,6.04-.01,1.63-2.21,2.39-2.96,3.18-2.67,2.79-4.31.1-5.32,2.65l-11.17.13c-.62,0-.73-.95-.5-1.17l-.26-.25c-1.02.46-1.9,1.18-2.88,2.43,1.02.55,1.69.38,2.75.35,1.07,1.98,2.99,3.2,4.67,4.31.42,2.39.94,4.81,2.13,5.68.64.46.64,2.66.01,3.13-.76.56-1.47,1.05-1.18,2.17.77,3.06-1.9,6.41-4.71,6.44-.55.42-1.04,1.99-2.54,1.19-1.96,2.37-4.97,2.89-8.12,2.32-.54.86-.52,1.89-.3,3.03l3.53.12c.6,2.72,3.38-.19,4.56,2.76,1.53-.51,2.33.59,3.2,1.45.3.29,1.96-.17,1.94.24-.02.31-.07,1.4.24,1.54,1.07.5,1.25,1.79,1.6,2.68.79,2.02,1.03,3.33,0,5.35l-.53,4.61c-2.78,1.96-5.08,3.34-3.78,5.47,1.08.44,3.06.08,4.45.17l1.06-1.53,8.72.18c.3,1.15,1.27,1.47,2.28,1.3l4.76,4.39c.13,1.86-.47,3.78.23,5.64.38.65,1.48.94,1.33,2.21-.1.82-1.06,1.14-1.32,1.65-.59,1.65-.31,3.38-.12,4.76,1.01.06,1.85.07,2.44-.02.42-.07.04-1.48.35-1.77,1.14-1.08,2.07-1.97,2.68-3.57,1.44.53,2.64.09,2.82-1.54,1.9,1.13,2.28-.64,3.12-1,1.25-.54,3.11.32,4.19-1.5l3.7,1.54,6.38,6.02c.1,1.35-.55,3.04.21,4.1l1.75,2.43c1.11-2.16,2.46-2.11,1.78-5.71,2.09-.99,3.52-2.39,4.83-4.26h5.81c1.36,2.41,3.97,3.72,5.43,6.01.43.68.57,2.15,1.45,2.87.59.48-.25,2.64,1.9,2.43-.36,1.47-.32,2.21-.11,3.32,2.4.36.79,3.6,1.6,3.93.38.15,1.45.23,1.85.08.17-.06-.36-2.14,3.16-4.29-.52-1.69.42-2,1.23-3.03.55-.7.42-2.96,1.72-3.06l3.43-.26c.33-1.2,1.03-1.42,1.96-1.39,1.45.05,1.25,2.26,4.21,1.38l6.09,5.99c.09.82-.19,1.56.41,2.53,2.03-1.77,2.8-2.16,2.43-4.28-.08-.48,1.36-.63,1.36-.29l-.15,11.42-5.32-5.04c-.16-1.83-1.21-3.24-2.76-4.26-1.75-2.02-4.28-4.54-6.3-4.7-1.38-3.73-1.71,2.34-5.81,1.67-.75,2.8-1.02,5.19-2.48,5.72l-.05,4.31c-3,1.02.07,4.32-2.77,4.93l-.22,3.87c-1.96.11-1.1-1.52-1.33-2.03-.66-1.46-1.41-2.87-.87-4.37s-1.04-1.84-1.21-2.47c-.33-1.21-.53-2.1-1.46-3.09-.48-.51-.46-1.79-1.68-2.22.22-3.53.13-4.43-2.93-6.59.5-2.04-.94-2.96-1.92-4.19-1.82-2.29-4.29-2.68-6.68-1.12-.44.29-1.72-.1-1.86.31-.11.32.29,1.44-.01,1.77l-2.65,2.85c-.12,1.33-.52,2.25-1.46,2.92l-.43,7.37c-.69-.65-1.97-1.24-2.02-1.83l-.27-3.53c-2.45-.46-.62-3.3-1.66-3.87l-1.22-.66c.92-1.53-.75-2.23-1.02-2.97-.37-1.03-.49-1.91-1.36-2.86-.92-1.01-1.28-3.54-3.23-4.43-.96-.4-3.02-.43-4.26-.22-.59,1.3-1.63,1.39-2.87,1.56-.45.62-1.52,1.46-2.56,1.24l-9.75,9.79c-1.24-6.14,2.61-11.03-.1-14.55,1.05-1.3,1.01-2.22.31-3.82-.51-1.17-1.07-3.92-3.18-3.74-3.41.29-6.31-2-12.78-.78-1.35.25-2.38,1.25-4.08.67-1.31-.45-2.27.39-2.82,1.38-.55.01-1.55.09-1.76.45-.14.25-.14,1.04-.65,1.09-1.19.12-1.21-1.27-.94-2.14.46-1.47,2.94-.93,2.88-3.62-.03-1.27,1.86-1.98,2.08-2.95.24-1.05,1.07-1.8,1.54-2.34-.07-2.99,2.69-2.84,3.15-5.44.18-.99-1.06-1.21-1.39-1.68l-.18-4.7c-.82-.12-1.44-.13-2.43.01-.65-1.93-2.4-2.02-3.93-2.85-.48-.26-1.09-1.61-2.13-1.07-1.7.87-2.46-1.03-3.3-1.19-1.55-.29-2.84-.17-3.56-1.51l-6.01-.16c-.21-1.06-.26-1.81-.01-2.84,4.14.35,6.39-.45,9.69-1.25.98-.73,1.8-1.04,3.01-1.52.72-.28,1.68-1.38,2.88-1.31,1.73-1.24,3.78-2.79,5.32-2.9,1.25-.09,2.25-1.94,3.38-2.68-.2-2.22.51-4.87-.27-6.92-2.43-3.49-6.77-5.84-7.82-7.94-.32-.64-1.47-1.7-2.04-2.12-3.24.2-2.6-3.37-6.52-3.28,1.85-1.67,3.36-.03,4.89.04l7.29.34c.24.16.26.96.17,1.07l.27.26Z"/>
        <g>
          <path d="M134.89,65.84l-.15,7.28-1.38.98v4.73c-1.31-.05-3.06.38-4.08-.1-2.74-1.29-2.69-6.14-.8-6.9l.28-15.71c0-.3,1.19-.53,1.09-.9s-.66-.53-.85-.93c-1.29-2.67-3.52.02-5.48-2.04-1.57-1.65-1.59-5.24.23-6.52.2-.14.09-.96.77-.82.4.09.71.56.9,1.28l10.12.15.92,1.44,8.25.03-.02,8.04-3.48.04-.87-1.41-4.27.11v10.04c0,.37-1.18.85-1.19,1.19Z"/>
          <path d="M115.14,75.9l-7.41.08v-27.68c.19-.39.98-.76,1.32-.95v-3.36s6.08.03,6.08.03v31.89Z"/>
        </g>
      </g>
    </g>
  </g>
</svg>