<?xml version="1.0" encoding="UTF-8"?>
<svg id="Layer_2" data-name="Layer 2" xmlns="http://www.w3.org/2000/svg" viewBox="0 0 226.53 113.02">
  <defs>
    <style>
      .cls-1 {
        fill: #231f20;
      }
    </style>
  </defs>
  <g id="Layer_1-2" data-name="Layer 1">
    <g>
      <path class="cls-1" d="M0,28.93h68.16v13.24H0v-13.24ZM10.85,67.24c1.67-1.1,4.19-1.66,7.54-1.66h44.25v10.91h-31.99v10.05c0,1.64-.35,2.82-1.04,3.55-.7.74-1.66,1.1-2.88,1.1-1.96,0-4.41-1.14-7.35-3.43-2.94-2.29-5.52-4.94-7.72-7.97-2.21-3.02-3.31-5.6-3.31-7.72s.84-3.74,2.51-4.84ZM58.59,76.86c0-12.75-.12-24.31-.37-34.69h-16.79v-13.24h42.78v13.24h-16.79c-.25,10.38-.37,21.94-.37,34.69s.12,24.31.37,34.69h-9.19c.25-10.38.37-21.94.37-34.69Z"/>
      <path class="cls-1" d="M92.67,76.86c0-12.75-.12-24.31-.37-34.69h-16.79v-13.24h42.78v13.24h-16.79c-.25,10.38-.37,21.94-.37,34.69s.12,24.31.37,34.69h-9.19c.25-10.38.37-21.94.37-34.69Z"/>
      <path class="cls-1" d="M109.59,42.17v-13.24h70.24v13.24h-70.24ZM171.25,99.9c-4.66,1.06-9.24,1.59-13.73,1.59-5.48-.08-10.34-.98-14.59-2.7-4.25-1.72-7.62-4.35-10.11-7.91-2.49-3.55-3.74-7.95-3.74-13.18,0-2.45.33-4.82.98-7.11.65-2.29,1.63-4.29,2.94-6.01h-14.34v-8.58h38.61v8.58h-5.52c-3.27,0-5.93.53-7.97,1.59-2.04,1.06-3.54,2.41-4.47,4.04-.94,1.64-1.41,3.31-1.41,5.03,0,4.09,1.78,7.13,5.33,9.13,3.55,2,8.56,3,15.02,3,4.49.08,8.87-.39,13.12-1.41,4.25-1.02,7.76-2.47,10.54-4.35l.86,14.1c-3.02,1.72-6.86,3.11-11.52,4.17ZM179.95,76.86c0-12.75-.12-24.31-.37-34.69h-16.79v-13.24h42.78v13.24h-16.79c-.25,10.38-.37,21.94-.37,34.69s.12,24.31.37,34.69h-9.19c.25-10.38.37-21.94.37-34.69Z"/>
      <path class="cls-1" d="M182.03,3.92c5.07,2.62,8.58,6.23,10.54,10.85,1.96,4.62,2.94,10.4,2.94,17.35h-8.34c0-5.07-.71-8.95-2.15-11.65-1.43-2.7-4-4.64-7.72-5.82-3.72-1.18-9.09-1.78-16.12-1.78V0c8.83,0,15.77,1.31,20.84,3.92Z"/>
      <path class="cls-1" d="M197.36,17.35c-1.14-1.1-1.72-2.55-1.72-4.35s.57-3.25,1.72-4.35c1.15-1.1,2.66-1.65,4.54-1.65s3.39.53,4.54,1.59c1.14,1.06,1.72,2.49,1.72,4.29s-.57,3.37-1.72,4.47c-1.15,1.1-2.66,1.66-4.54,1.66s-3.39-.55-4.54-1.66Z"/>
      <path class="cls-1" d="M213.23,111.06c-1.43-1.31-2.14-3.1-2.14-5.39,0-2.12.74-3.86,2.21-5.21s3.35-2.02,5.64-2.02,4.13.67,5.52,2.02c1.39,1.35,2.08,3.09,2.08,5.21,0,2.29-.7,4.09-2.08,5.39-1.39,1.31-3.23,1.96-5.52,1.96s-4.27-.66-5.7-1.96ZM212.92,25.74h11.77l-1.72,60.56h-8.33l-1.72-60.56Z"/>
    </g>
  </g>
</svg>