<?xml version="1.0" encoding="UTF-8"?>
<svg id="Layer_2" data-name="Layer 2" xmlns="http://www.w3.org/2000/svg" viewBox="0 0 285.61 285.44">
  <defs>
    <style>
      .cls-1 {
        fill: #f3ead4;
      }
    </style>
  </defs>
  <g id="Layer_1-2" data-name="Layer 1">
    <polygon class="cls-1" points="142.81 29.27 152.77 0 158.57 30.37 172.51 2.77 174.03 33.66 191.68 8.27 188.88 39.06 209.89 16.38 202.83 46.48 226.8 26.94 215.62 55.77 242.07 39.76 226.98 66.75 255.41 54.57 236.71 79.2 266.55 71.1 244.62 92.89 275.29 89.02 250.54 107.54 281.45 107.98 254.36 122.88 284.92 127.61 256.01 138.59 285.61 147.53 255.46 154.39 283.53 167.36 252.71 169.95 278.71 186.7 247.83 184.98 271.24 205.18 240.9 199.18 261.27 222.45 232.07 212.28 249 238.16 221.49 224.03 234.66 252.01 209.39 234.18 218.53 263.72 195.98 242.56 200.93 273.08 181.55 248.99 182.19 279.9 166.36 253.34 162.69 284.05 150.71 255.54 142.81 285.44 134.9 255.54 122.92 284.05 119.26 253.34 103.42 279.9 104.06 248.99 84.69 273.08 89.63 242.56 67.08 263.72 76.23 234.18 50.96 252.01 64.12 224.03 36.62 238.16 53.55 212.28 24.34 222.45 44.71 199.18 14.37 205.18 37.78 184.98 6.91 186.7 32.9 169.95 2.08 167.36 30.15 154.39 0 147.53 29.6 138.59 .7 127.61 31.25 122.88 4.16 107.98 35.08 107.54 10.32 89.02 41 92.89 19.06 71.1 48.9 79.2 30.2 54.57 58.63 66.75 43.54 39.76 70 55.77 58.82 26.94 82.78 46.48 75.72 16.38 96.73 39.06 93.93 8.27 111.58 33.66 113.1 2.77 127.04 30.37 132.84 0 142.81 29.27"/>
  </g>
</svg>