<?xml version="1.0" encoding="UTF-8"?>
<svg id="Layer_2" data-name="Layer 2" xmlns="http://www.w3.org/2000/svg" viewBox="0 0 464.55 254.68">
  <g id="Layer_1-2" data-name="Layer 1">
    <g id="_3Mjy3c" data-name="3Mjy3c">
      <path d="M29.86,243.3c-9,3.6-17.12,7.75-26.28,9.94-.64.15-1.82,1.81-2.11,1.37-.43-.65-1.21-1.86-1.43-2.57-.34-1.09,1.85-1.24,2.5-1.65l12.36-7.75,14.56-8.35c2.4-1.37,5.32-1.14,7.5-1.85-.86-.51-1.62-.93-1.7-1.22s.46-.92,1.16-1.61c3.71,1.41,7.75.18,10.28-3.11,2.14-2.78,4.66-3.01,7.69-4.49l12.76-6.25,45.21-22.5,16.74-8.32,18.12-8.84c4.29-2.09,8.09-4.69,12.45-6.67l10.99-4.99c5.74-2.61,10.99-5.57,16.64-8.46l18.47-9.45c10.27-5.26,20.27-10.13,30.64-15.32l30.67-15.35,13.41-6.66c3.82-1.9,7.05-4.26,11.14-5.78,6.06-2.24-1.02-9.98-9.13-15.2,1.02-.8,1.85-1.52,1.94-1.97.08-.42-.6-1.15-1.48-1.85,1.25-1.5,4.17-3.47,6.17-2.94.49.18,1.35,1.65,2.32,1.27,2-.78.1-3.11,1.51-4.53,1.9-1.92,2.93,1.96,4.41,1.53.5-.15,1.42-.95,1.36-1.45s-1.09-1.22-2.31-2c3.8-2.13,7.63-4.26,12.47-4.55,2.04,6.55-.28,13.15,3.28,17.93l9.84-3.83c1.88-.73,4.07,1.03,5.68.36,2.02-.85,3.11-2.35,4.04-4.63.75-1.84,3.44-1.52,4.79-2.44.8-.54,1.79-3.21,3.27-2.04.25.26-.31,1.29-.58,1.54-.35.32-.1,1.03.28,1.15,1.52.5,5.41-5.86,6.61-6.78,3.35-2.55,7.75-3.21,10.16-7.03,2.85-4.51-4.84-9.52-3.18-23.37,1.02-8.5,8.02-14.98,16.01-17.68s16.33-5.24,24.24-8.68c7.03-3.06,8.34-8.55,11.6-16.24,2.81,4.7,4.08,9.66,2.71,14.73-4.35,16.08-37.01,14.22-40.86,27.54-1.58,5.44,3.37,16.06,8.91,13.16l12.47-6.54c17.41-9.13,35.46-15.99,53.93-22.97,7.16-2.7,14.13-5.81,21.82-5.91,1.71.55-.26,4.17-1.57,5.17-10.32,7.9-21.21,13.88-32.49,20.47l-40.94,23.91c-3.9,2.28-7.05,3.61-5.95,9.53.52,2.78,3.27,4.82,5.53,5.82,3.33,1.46,6.39.7,9.56-1.13l15.88-9.16c12.62-7.28,23.18-10.25,33.68,1.46l-12.46.9c-8.51.61-18.89,14.03-31.93,19.03-24.37,9.34-33.58-15.38-36.05-16.09-5.07-1.46-8.78,3.71-16.74,4.61l-6.12,2.85c-2.63,1.23-3.89,3.05-7.09,3.84-7.28,1.79-13.72,5.99-20.8,9.53,3.82,7,9.54,11.63,15.1,16.31.42.47.26,2.61-.29,2.94l-7.65,4.56c-.7.42-2.12-1.09-2.18-1.83l-2.1,4.22c-5.55-3.76-5.27,4.73-10.29,3.57-5.42-1.24-3.2-11.4-7.7-21.47-1.32,3.59-4.2,2.08-5.63,2.13l-59.02,29.11-14.87,7.13-25.17,12.89-31.51,15.62-60.62,30.31-46.39,23.67c-3.51,1.79-5.8,3.66-10.29,3.43-7.35,1.62-10.1,6.85-17.9,9.97ZM358,63.2c3.14,1.06,4.47.87,6.6-.17-2.99-3.1-4.18-5.62-6.14-8.48-1.31,2.52-.03,3.99,1.21,5.72.69.97-1.07,2.72-1.67,2.93ZM371.15,80.15c.75,5.76,5.21,6.64,8.89,8.63,4.19,2.27,7.52,7.03,13.15,4.39-6.14-1.35-11.94-3.75-15.18-9.53-.31-1.22.58-3.38.94-4.75-3.86-3.59-3.82-8.34-1.79-12.9-2.73-.84-6.89.59-7.4,2.99-1.43,6.79-3.8,7.91-1.84,9.35.82.6,1.33.67,2.2-.39,2.99-3.66-.09-5.14,1.29-7.19.32-.48,1.21-1.49,1.93-.03-1.02,1.76.87,2.68,1.24.22.68,1.88.49,4.12.28,6.58-1.27-.52-2.3-.53-2.76-.05-.38.4-1.03,2.1-.95,2.69ZM315.46,98.43l22.88-11.61-.95-1.19-15.87,7.78c-2.27,1.11-6.21,1.16-6.06,5.02ZM310.13,103.97c-2.17.88-3.75.98-4.11.25-1.15-2.35,3.82-6.06.3-6.47-1.1-.13-3.02,3.86-2.87,4.13l1.21,2.12c2.21,3.88,3.43,7.58,6.36,10.62-.94-4.69-2.48-6.97-.89-10.65ZM274.92,118.62l20.11-9.77c1.63-.79,2.66-2.08,1.59-4.13-1.84,1.86-3.86,3.07-6.41,4.37l-52.06,26.46c12.25-3.99,25.17-11.29,36.78-16.93ZM205.15,152.43l12.9-6.29c-2.27-.92-3.98.03-5.77.92l-10.3,5.14c.56.84,1.17,1.45,1.49,1.51s.93-.9,1.67-1.26ZM148.36,180.59l46.16-22.72c-2.11-2.16-3.9.13-5.59.95l-44.52,21.38-17.56,9.54c7.93-1.35,14.06-5.5,21.5-9.15ZM122.28,190.87l-71,35.5,1.2,2.4,71-35.5-1.2-2.4Z"/>
    </g>
  </g>
</svg>